<svg width="382" height="92" viewBox="0 0 382 92" fill="none" xmlns="http://www.w3.org/2000/svg">
<path d="M54 0H27L0 92H27L54 0Z" fill="#2E5266"/>
<path d="M151 22L157 0H60L54 22H151Z" fill="#2E5266"/>
<path d="M68 92L87 29H114L96 92H68Z" fill="#2E5266"/>
<path d="M151 70L145 92H216C232.8 92 239.667 77.3333 241 70H151Z" fill="#2E5266"/>
<path d="M182 0H256L251 22H189L185 36C192.667 36.1667 212.396 36 230 36C248.5 36 246.5 54 243 63H215L216 56H173C141 56 162 0 182 0Z" fill="#2E5266"/>
<path d="M287.714 0H262L281.286 82.8C283 90.16 288.429 92 290.929 92H310.214C315.357 92 320.214 87.4 322 85.1L382 0H353.071L310.214 62.1C309.5 62.8667 307.429 64.4 304.857 64.4C302.286 64.4 300.929 61.3333 300.571 59.8L287.714 0Z" fill="#2E5266"/>
</svg>
